# xmcd
#
# Track frame offsets: 
#        150
#        14880
#        39000
#        57212
#        84772
#        103572
#        114455
#        138535
#        149472
#        169282
#        181652
#        190965
#
# Disc length: 2872 seconds
#
# Revision: 0
# Processed by: cddbd v1.5.1PL0 Copyright (c) Steve Scherf et al.
# Submitted via: ExactAudioCopy v0.95a5
#
DISCID=9d0b360c
DTITLE=Filipowicz - What Have You Done For Me Lately
DYEAR=1999
DGENRE=Blues
TTITLE0=Every Night About This Time
TTITLE1=Black Spider
TTITLE2=Sportalaters Boogie
TTITLE3=Can't Take It With You
TTITLE4=Hound Dogin'
TTITLE5=Curly Sue
TTITLE6=Whiskey Man
TTITLE7=Cold Cold Cold
TTITLE8=Bone Chill
TTITLE9=Blind Eyes
TTITLE10=Heather's Mambo
TTITLE11=Fried Chicken
EXTD=
EXTT0=
EXTT1=
EXTT2=
EXTT3=
EXTT4=
EXTT5=
EXTT6=
EXTT7=
EXTT8=
EXTT9=
EXTT10=
EXTT11=
PLAYORDER=
